# xmcd CD database file
#
# Track frame offsets:
#	150
#	12597
#	25195
#	40565
#	49564
#	62011
#	78884
#	89456
#	105054
#	118328
#	130474
#	150423
#	165946
#	184768
#
# Disc length: 2680 seconds
#
# Revision: 0
# Processed by: cddbd v1.5.1PL0 Copyright (c) Steve Scherf et al.
# Submitted via: CDex 1.51
#
DISCID=9e0a760e
DTITLE=Duo San Juan - Leticia - Guitarra Y Amor
DYEAR=2001
DGENRE=Salsa
TTITLE0=Nostros
TTITLE1=Ya Me Enteré
TTITLE2=Madrigal
TTITLE3=Piel Canela
TTITLE4=Las Dos Puntas
TTITLE5=Bésame Mucho
TTITLE6=Beso Discreto
TTITLE7=Guajira Guantanamera
TTITLE8=Sabor A Mi
TTITLE9=Cariñoso
TTITLE10=Hasta Siempre
TTITLE11=Mamá, Son De La Loma
TTITLE12=Yolanda
TTITLE13=Cantinero De Cuba
EXTD=YEAR: 2001
EXTT0=
EXTT1=
EXTT2=
EXTT3=
EXTT4=
EXTT5=
EXTT6=
EXTT7=
EXTT8=
EXTT9=
EXTT10=
EXTT11=
EXTT12=
EXTT13=
PLAYORDER=
